<?xml version="1.0" encoding="UTF-8"?>
<svg viewBox="0 0 400 400" xmlns="http://www.w3.org/2000/svg">
  <defs>
    <!-- Colorful background gradient -->
    <radialGradient id="backgroundGradient" cx="50%" cy="30%">
      <stop offset="0%" style="stop-color:#FFE082;stop-opacity:1" />
      <stop offset="25%" style="stop-color:#FF8A65;stop-opacity:0.8" />
      <stop offset="50%" style="stop-color:#81C784;stop-opacity:0.6" />
      <stop offset="75%" style="stop-color:#64B5F6;stop-opacity:0.4" />
      <stop offset="100%" style="stop-color:#BA68C8;stop-opacity:0.2" />
    </radialGradient>
  </defs>
  
  <!-- Background -->
  <rect width="400" height="400" fill="url(#backgroundGradient)"/>
  
  <!-- Five interlocked stars representing KINETIC KIDS -->
  <g transform="translate(200,150)">
    <!-- Blue star (top left) -->
    <path d="M-60,-30 L-45,-15 L-30,-30 L-35,-10 L-15,-15 L-35,5 L-30,25 L-45,10 L-60,25 L-55,5 L-75,-15 L-55,-10 Z" 
          fill="none" stroke="#1976D2" stroke-width="8" stroke-linejoin="round"/>
    
    <!-- Black star (top center) -->
    <path d="M0,-40 L15,-25 L30,-40 L25,-20 L45,-25 L25,-5 L30,15 L15,0 L0,15 L5,-5 L-15,-25 L5,-20 Z" 
          fill="none" stroke="#424242" stroke-width="8" stroke-linejoin="round"/>
    
    <!-- Red star (top right) -->
    <path d="M60,-30 L75,-15 L90,-30 L85,-10 L105,-15 L85,5 L90,25 L75,10 L60,25 L65,5 L45,-15 L65,-10 Z" 
          fill="none" stroke="#D32F2F" stroke-width="8" stroke-linejoin="round"/>
    
    <!-- Orange star (bottom left) -->
    <path d="M-30,20 L-15,35 L0,20 L5,40 L25,35 L5,55 L0,75 L-15,60 L-30,75 L-25,55 L-45,35 L-25,40 Z" 
          fill="none" stroke="#FF9800" stroke-width="8" stroke-linejoin="round"/>
    
    <!-- Green star (bottom right) -->
    <path d="M30,20 L45,35 L60,20 L65,40 L85,35 L65,55 L60,75 L45,60 L30,75 L35,55 L15,35 L35,40 Z" 
          fill="none" stroke="#388E3C" stroke-width="8" stroke-linejoin="round"/>
  </g>
  
  <!-- KINETIC KIDS text -->
  <text x="200" y="280" font-family="Arial, sans-serif" font-size="32" font-weight="bold" 
        text-anchor="middle" fill="#333">KINETIC KIDS</text>
</svg>