<?xml version="1.0" encoding="UTF-8"?>
<svg viewBox="0 0 400 400" xmlns="http://www.w3.org/2000/svg">
  <defs>
    <!-- Watercolor background gradients -->
    <radialGradient id="redGradient" cx="20%" cy="20%">
      <stop offset="0%" style="stop-color:#FF6B6B;stop-opacity:0.9" />
      <stop offset="50%" style="stop-color:#FF8E53;stop-opacity:0.7" />
      <stop offset="100%" style="stop-color:#FF6B9D;stop-opacity:0.4" />
    </radialGradient>
    
    <radialGradient id="orangeGradient" cx="80%" cy="30%">
      <stop offset="0%" style="stop-color:#FFD93D;stop-opacity:0.8" />
      <stop offset="50%" style="stop-color:#FF8C42;stop-opacity:0.6" />
      <stop offset="100%" style="stop-color:#FFB347;stop-opacity:0.3" />
    </radialGradient>
    
    <radialGradient id="greenGradient" cx="10%" cy="80%">
      <stop offset="0%" style="stop-color:#4ECDC4;stop-opacity:0.8" />
      <stop offset="50%" style="stop-color:#44A08D;stop-opacity:0.6" />
      <stop offset="100%" style="stop-color:#48CAE4;stop-opacity:0.4" />
    </radialGradient>
    
    <radialGradient id="purpleGradient" cx="90%" cy="85%">
      <stop offset="0%" style="stop-color:#A8E6CF;stop-opacity:0.7" />
      <stop offset="50%" style="stop-color:#B19CD9;stop-opacity:0.5" />
      <stop offset="100%" style="stop-color:#C3B1E1;stop-opacity:0.3" />
    </radialGradient>
  </defs>
  
  <!-- White background -->
  <rect width="400" height="400" fill="white"/>
  
  <!-- Watercolor background elements -->
  <circle cx="80" cy="80" r="120" fill="url(#redGradient)" opacity="0.6"/>
  <circle cx="320" cy="100" r="100" fill="url(#orangeGradient)" opacity="0.5"/>
  <circle cx="50" cy="320" r="110" fill="url(#greenGradient)" opacity="0.6"/>
  <circle cx="350" cy="350" r="90" fill="url(#purpleGradient)" opacity="0.5"/>
  
  <!-- Five interlocked stars based on the logo -->
  <g transform="translate(200,200)">
    <!-- Blue star (left) -->
    <path d="M-50,-10 L-40,0 L-30,-10 L-25,5 L-10,0 L-25,15 L-30,30 L-40,20 L-50,30 L-45,15 L-60,0 L-45,5 Z" 
          fill="none" stroke="#2E86AB" stroke-width="12" stroke-linejoin="round" stroke-linecap="round"/>
    
    <!-- Black star (top center) -->
    <path d="M0,-40 L10,-30 L20,-40 L15,-25 L30,-30 L15,-15 L20,0 L10,-10 L0,0 L5,-15 L-10,-30 L5,-25 Z" 
          fill="none" stroke="#2D3436" stroke-width="12" stroke-linejoin="round" stroke-linecap="round"/>
    
    <!-- Red star (right) -->
    <path d="M50,-10 L60,0 L70,-10 L65,5 L80,0 L65,15 L70,30 L60,20 L50,30 L55,15 L40,0 L55,5 Z" 
          fill="none" stroke="#E74C3C" stroke-width="12" stroke-linejoin="round" stroke-linecap="round"/>
    
    <!-- Orange star (bottom left) -->
    <path d="M-25,25 L-15,35 L-5,25 L0,40 L15,35 L0,50 L-5,65 L-15,55 L-25,65 L-20,50 L-35,35 L-20,40 Z" 
          fill="none" stroke="#F39C12" stroke-width="12" stroke-linejoin="round" stroke-linecap="round"/>
    
    <!-- Green star (bottom right) -->
    <path d="M25,25 L35,35 L45,25 L50,40 L65,35 L50,50 L45,65 L35,55 L25,65 L30,50 L15,35 L30,40 Z" 
          fill="none" stroke="#00B894" stroke-width="12" stroke-linejoin="round" stroke-linecap="round"/>
  </g>
  
  <!-- KINETIC KIDS text -->
  <text x="200" y="320" font-family="Arial, sans-serif" font-size="36" font-weight="300" 
        text-anchor="middle" fill="#2D3436" letter-spacing="2px">KINETIC KIDS</text>
</svg>